<?xml version="1.0" encoding="UTF-8"?>
<svg id="Ebene_1" data-name="Ebene 1" xmlns="http://www.w3.org/2000/svg" viewBox="0 0 946.91 323.42">
  <defs>
    <style>
      .cls-1 {
        fill: #004380;
      }

      .cls-2 {
        fill: #ec6608;
      }

      .cls-3, .cls-4 {
        fill: #4a4a49;
      }

      .cls-4 {
        font-family: Arial-BoldMT, Arial;
        font-size: 111px;
        font-weight: 700;
      }
    </style>
  </defs>
  <g>
    <polygon class="cls-1" points="119.24 311.62 151.36 212.42 147.56 211.19 115.46 310.4 119.24 311.62 119.24 311.62"/>
    <polygon class="cls-1" points="151.34 211.16 121.43 123.42 118.86 125.92 220.78 163.05 222.59 163.7 223.31 161.92 254.09 85.69 250.39 84.2 219.61 160.43 222.15 159.3 120.23 122.19 116.31 120.75 117.67 124.7 147.56 212.44 151.34 211.16 151.34 211.16"/>
    <polygon class="cls-1" points="256.88 228.87 223.25 160.29 219.67 162.05 253.31 230.62 256.88 228.87 256.88 228.87"/>
    <polygon class="cls-1" points="27.77 183.48 120.6 125.75 121.11 125.43 121.37 124.89 167.4 24.65 163.77 22.99 117.74 123.22 118.49 122.37 25.67 180.1 27.77 183.48 27.77 183.48"/>
    <polygon class="cls-1" points="120.31 122.21 22.78 81.92 21.25 85.61 118.78 125.89 120.31 122.21 120.31 122.21"/>
    <path class="cls-1" d="M104.93,311.01c0,6.87,5.57,12.41,12.42,12.41s12.43-5.54,12.43-12.41-5.57-12.44-12.43-12.44-12.42,5.57-12.42,12.44h0Z"/>
    <path class="cls-1" d="M224.06,84.94c0,15.56,12.62,28.16,28.17,28.16s28.16-12.6,28.16-28.16-12.61-28.15-28.16-28.15-28.17,12.61-28.17,28.15h0Z"/>
    <path class="cls-1" d="M266.86,229.75c0,6.49-5.27,11.75-11.75,11.75s-11.77-5.26-11.77-11.75,5.26-11.77,11.77-11.77,11.75,5.26,11.75,11.77h0Z"/>
    <path class="cls-1" d="M43.68,181.81c0,9.37-7.6,16.96-16.96,16.96s-16.97-7.59-16.97-16.96,7.59-16.98,16.97-16.98,16.96,7.61,16.96,16.98h0Z"/>
    <path class="cls-1" d="M44.03,83.77c0,12.16-9.87,22-22.02,22S0,95.93,0,83.77s9.86-22.02,22.02-22.02,22.02,9.85,22.02,22.02h0Z"/>
    <polygon class="cls-2" points="141.77 47.64 189.41 47.64 189.41 0 141.77 0 141.77 47.64 141.77 47.64"/>
    <polygon class="cls-2" points="232.81 172.51 210.12 172.51 210.12 149.84 232.81 149.84 232.81 172.51 232.81 172.51"/>
    <polygon class="cls-2" points="171.4 233.75 127.51 233.75 127.51 189.85 171.4 189.85 171.4 233.75 171.4 233.75"/>
    <polygon class="cls-2" points="134.37 138.88 104.73 138.88 104.73 109.24 134.37 109.24 134.37 138.88 134.37 138.88"/>
    <polygon class="cls-1" points="119.44 311.62 151.55 212.42 147.76 211.19 115.65 310.4 119.44 311.62 119.44 311.62"/>
    <polygon class="cls-1" points="151.53 211.16 121.62 123.42 119.05 125.92 220.97 163.04 222.78 163.7 223.5 161.92 254.28 85.68 250.58 84.2 219.8 160.43 222.34 159.29 120.42 122.18 116.51 120.76 117.86 124.7 147.76 212.44 151.53 211.16 151.53 211.16"/>
    <polygon class="cls-1" points="257.07 228.88 223.45 160.29 219.86 162.04 253.5 230.62 257.07 228.88 257.07 228.88"/>
    <polygon class="cls-1" points="27.96 183.49 120.79 125.75 121.3 125.43 121.56 124.88 167.59 24.65 163.97 22.98 117.93 123.23 118.68 122.36 25.86 180.1 27.96 183.49 27.96 183.49"/>
    <polygon class="cls-1" points="120.5 122.21 22.97 81.91 21.44 85.61 118.97 125.89 120.5 122.21 120.5 122.21"/>
    <path class="cls-1" d="M105.12,311.01c0,6.87,5.57,12.41,12.42,12.41s12.43-5.54,12.43-12.41-5.57-12.43-12.43-12.43-12.42,5.56-12.42,12.43h0Z"/>
    <path class="cls-1" d="M224.25,84.93c0,15.57,12.62,28.18,28.17,28.18s28.16-12.61,28.16-28.18-12.61-28.14-28.16-28.14-28.17,12.61-28.17,28.14h0Z"/>
    <path class="cls-1" d="M267.05,229.75c0,6.5-5.27,11.76-11.75,11.76s-11.77-5.26-11.77-11.76,5.26-11.75,11.77-11.75,11.75,5.26,11.75,11.75h0Z"/>
    <path class="cls-1" d="M43.87,181.81c0,9.37-7.6,16.96-16.96,16.96s-16.97-7.59-16.97-16.96,7.59-16.97,16.97-16.97,16.96,7.6,16.96,16.97h0Z"/>
    <path class="cls-1" d="M44.22,83.76c0,12.17-9.87,22.02-22.02,22.02S.19,95.93.19,83.76s9.86-22.01,22.02-22.01,22.02,9.86,22.02,22.01h0Z"/>
    <polygon class="cls-2" points="141.96 47.64 189.6 47.64 189.6 0 141.96 0 141.96 47.64 141.96 47.64"/>
    <polygon class="cls-2" points="233 172.51 210.31 172.51 210.31 149.83 233 149.83 233 172.51 233 172.51"/>
    <polygon class="cls-2" points="171.59 233.74 127.7 233.74 127.7 189.85 171.59 189.85 171.59 233.74 171.59 233.74"/>
    <polygon class="cls-2" points="134.56 138.87 104.92 138.87 104.92 109.24 134.56 109.24 134.56 138.87 134.56 138.87"/>
    <polygon class="cls-1" points="119.86 311.62 151.97 212.42 148.18 211.19 116.08 310.4 119.86 311.62 119.86 311.62"/>
    <polygon class="cls-1" points="151.96 211.16 122.05 123.42 119.48 125.92 221.4 163.04 223.21 163.7 223.93 161.92 254.7 85.68 251 84.2 220.22 160.43 222.76 159.29 120.85 122.18 116.93 120.76 118.28 124.7 148.18 212.44 151.96 211.16 151.96 211.16"/>
    <polygon class="cls-1" points="257.5 228.88 223.87 160.29 220.29 162.04 253.92 230.62 257.5 228.88 257.5 228.88"/>
    <polygon class="cls-1" points="28.39 183.49 121.22 125.75 121.73 125.43 121.98 124.88 168.01 24.65 164.39 22.98 118.35 123.23 119.11 122.36 26.28 180.1 28.39 183.49 28.39 183.49"/>
    <polygon class="cls-1" points="120.93 122.21 23.4 81.91 21.87 85.61 119.4 125.89 120.93 122.21 120.93 122.21"/>
    <path class="cls-1" d="M105.55,311.01c0,6.87,5.57,12.41,12.42,12.41s12.43-5.54,12.43-12.41-5.57-12.43-12.43-12.43-12.42,5.56-12.42,12.43h0Z"/>
    <path class="cls-1" d="M224.68,84.93c0,15.57,12.62,28.18,28.17,28.18s28.16-12.61,28.16-28.18-12.61-28.14-28.16-28.14-28.17,12.61-28.17,28.14h0Z"/>
    <path class="cls-1" d="M267.48,229.75c0,6.5-5.27,11.76-11.75,11.76s-11.77-5.26-11.77-11.76,5.26-11.75,11.77-11.75,11.75,5.26,11.75,11.75h0Z"/>
    <path class="cls-1" d="M44.3,181.81c0,9.37-7.6,16.96-16.96,16.96s-16.96-7.59-16.96-16.96,7.59-16.97,16.96-16.97,16.96,7.6,16.96,16.97h0Z"/>
    <path class="cls-1" d="M44.65,83.76c0,12.17-9.87,22.02-22.02,22.02S.62,95.93.62,83.76s9.86-22.01,22.02-22.01,22.02,9.86,22.02,22.01h0Z"/>
    <polygon class="cls-2" points="142.38 47.64 190.03 47.64 190.03 0 142.38 0 142.38 47.64 142.38 47.64"/>
    <polygon class="cls-2" points="233.42 172.51 210.73 172.51 210.73 149.83 233.42 149.83 233.42 172.51 233.42 172.51"/>
    <polygon class="cls-2" points="172.02 233.74 128.13 233.74 128.13 189.85 172.02 189.85 172.02 233.74 172.02 233.74"/>
    <polygon class="cls-2" points="134.99 138.87 105.35 138.87 105.35 109.24 134.99 109.24 134.99 138.87 134.99 138.87"/>
    <path class="cls-3" d="M368.35,130.45h-37.12V20.95h35.44c25.2,0,39.47,8.94,39.47,27.45,0,10.98-6.21,19.3-15.29,23.06,12.6,2.35,22.34,11.61,22.34,25.88,0,23.54-20.66,33.11-44.85,33.11h0ZM365.33,36.95h-12.1v29.5h14.11c11.59,0,16.3-6.43,16.3-15.22s-5.71-14.28-18.31-14.28h0ZM367.34,81.98h-14.11v32.32h17.3c10.92,0,19.15-5.49,19.15-15.69s-7.05-16.63-22.34-16.63h0Z"/>
    <path class="cls-3" d="M457.86,130.45h-37.12V20.95h35.44c25.19,0,39.47,8.94,39.47,27.45,0,10.98-6.21,19.3-15.29,23.06,12.6,2.35,22.34,11.61,22.34,25.88,0,23.54-20.66,33.11-44.85,33.11h0ZM454.84,36.95h-12.1v29.5h14.11c11.59,0,16.29-6.43,16.29-15.22s-5.71-14.28-18.31-14.28h0ZM456.86,81.98h-14.11v32.32h17.3c10.92,0,19.15-5.49,19.15-15.69s-7.05-16.63-22.34-16.63h0Z"/>
    <path class="cls-3" d="M622.97,130.45c-.34-29.97-1.85-60.4-5.04-87.38h-.17l-30.07,87.38h-21.17l-29.56-87.38h-.34c-2.68,26.67-4.54,57.58-4.7,87.38h-20.83c.34-34.83,3.19-73.58,8.06-109.51h32.59l26.54,78.44h.34l26.88-78.44h32.59c4.7,36.24,7.22,73.74,7.56,109.51h-22.68Z"/>
    <path class="cls-3" d="M719.53,130.45l-25.2-45.34h-11.08v45.34h-22.51V20.95h37.8c25.03,0,40.65,10.04,40.65,29.65,0,15.85-9.57,25.42-22.85,29.5l29.4,50.36h-26.21ZM696.19,37.26h-12.93v32h11.08c14.28,0,21.17-7.06,21.17-16.63,0-8.15-5.04-15.37-19.32-15.37h0Z"/>
    <polygon class="cls-3" points="757.65 130.45 757.65 20.95 780.16 20.95 780.16 130.45 757.65 130.45 757.65 130.45"/>
  </g>
  <text class="cls-4" transform="translate(798.84 129.45)"><tspan x="0" y="0">.cz</tspan></text>
</svg>