<?xml version="1.0" encoding="UTF-8"?>
<svg version="1.1" xmlns="http://www.w3.org/2000/svg" width="1500" height="422">
<path d="M0 0 C21.12 0 42.24 0 64 0 C64 20.79 64 41.58 64 63 C49.81 63 35.62 63 21 63 C20.01 65.97 19.02 68.94 18 72 C16.70907437 74.98335698 15.39241641 77.9251089 14.0078125 80.86328125 C13.62501633 81.6858844 13.24222015 82.50848755 12.8478241 83.35601807 C11.61141149 86.01031874 10.36827446 88.66140752 9.125 91.3125 C8.27060328 93.14357764 7.41668408 94.97487817 6.56323242 96.80639648 C4.85520659 100.47033744 3.14474535 104.13312451 1.43212891 107.79492188 C-1.67400221 114.43840868 -4.76002538 121.09117941 -7.84454346 127.74472046 C-9.1698023 130.60255274 -10.49702755 133.45947097 -11.82421875 136.31640625 C-12.24791748 137.22849854 -12.67161621 138.14059082 -13.1081543 139.08032227 C-13.40246338 139.71381592 -13.69677246 140.34730957 -14 141 C-11.69 141.33 -9.38 141.66 -7 142 C-7 149.92 -7 157.84 -7 166 C-3.7 166.99 -0.4 167.98 3 169 C5.01737104 169.68276004 7.02893602 170.38321462 9.03100586 171.10961914 C10.10430649 171.49755142 11.17760712 171.8854837 12.28343201 172.28517151 C13.41579788 172.69766647 14.54816376 173.11016144 15.71484375 173.53515625 C16.92402969 173.97331161 18.13321564 174.41146698 19.37904358 174.86289978 C21.93714609 175.78997919 24.49459144 176.7188403 27.05151367 177.64916992 C30.23899575 178.80890804 33.42758525 179.96555954 36.61662865 181.12099648 C53.77302861 187.33767276 70.89672975 193.63877317 88 200 C88.33 198.35 88.66 196.7 89 195 C95.27 195 101.54 195 108 195 C108.33 193.35 108.66 191.7 109 190 C109.54980728 188.41979343 110.14071997 186.85345741 110.76586914 185.30151367 C111.12616714 184.40095749 111.48646515 183.50040131 111.85768127 182.57255554 C112.24624802 181.6140419 112.63481476 180.65552826 113.03515625 179.66796875 C113.43327011 178.67622147 113.83138397 177.68447418 114.24156189 176.66267395 C115.51116341 173.50263814 116.78674631 170.34505643 118.0625 167.1875 C118.9255259 165.04247687 119.78816073 162.89729635 120.65039062 160.75195312 C122.76239637 155.49946888 124.87931512 150.24898561 127 145 C126.21753906 144.37689941 125.43507813 143.75379883 124.62890625 143.11181641 C113.97344534 134.55221975 108.70278231 126.13096978 107.15625 112.390625 C106.69847679 102.45694631 110.49724531 94.57846117 115.6875 86.3125 C124.60542375 77.39457625 134.4501305 73.03433617 147 73 C157.6905217 73.69556435 166.42460403 77.95257237 173.875 85.625 C181.17974501 94.42479157 183.86444998 102.97503889 183.41015625 114.390625 C182.28089592 124.32811592 178.13273178 132.00992286 171 139 C162.92488021 145.26517915 155.63610302 148.30232268 145.3125 148.1875 C144.02988281 148.18105469 142.74726563 148.17460937 141.42578125 148.16796875 C138.69857429 148.03425165 136.59259834 147.7106165 134 147 C133.66355469 148.25554687 133.32710938 149.51109375 132.98046875 150.8046875 C130.38160229 159.4675757 126.74498476 167.76792274 123.3125 176.125 C122.60309323 177.8618067 121.89410523 179.59878451 121.18554688 181.3359375 C119.46185645 185.55928132 117.73250348 189.78026426 116 194 C117.65 194.33 119.3 194.66 121 195 C121 205.23 121 215.46 121 226 C120.01 226.33 119.02 226.66 118 227 C124.39389002 240.51828828 130.92289819 253.95857141 137.6706543 267.30419922 C140.27922007 272.4793937 142.80528443 277.63513972 145 283 C145.56847656 283.02578125 146.13695312 283.0515625 146.72265625 283.078125 C152.54263073 283.50563565 156.28685174 284.48824247 161 288 C164.73716955 292.79124302 165.65868403 296.57674085 165.3828125 302.63671875 C164.58447454 307.56523371 161.97625021 310.15997075 158.3125 313.3125 C152.77490135 316.13354082 148.23594233 316.63351699 142.25 314.9375 C137.98194199 312.3930808 135.25259236 309.50518472 133 305 C132.23031878 298.09810449 133.03960505 293.69306773 137 288 C137.66 288 138.32 288 139 288 C138.71264984 287.42752029 138.42529968 286.85504059 138.12924194 286.26521301 C135.108891 280.24682532 132.09147828 274.2269709 129.07568359 268.20629883 C127.95337291 265.96667195 126.83034112 263.72740626 125.70654297 261.48852539 C114.2164145 238.59508276 114.2164145 238.59508276 109 227 C99.1 226.505 99.1 226.505 89 226 C88.67 220.06 88.34 214.12 88 208 C86.07365723 207.30777344 86.07365723 207.30777344 84.10839844 206.6015625 C54.04898416 195.7979876 24.01022305 184.93948705 -6 174 C-6.33 176.64 -6.66 179.28 -7 182 C-10.3 182 -13.6 182 -17 182 C-16.75991211 182.66491455 -16.51982422 183.3298291 -16.27246094 184.01489258 C-11.14733194 198.23194255 -6.10474338 212.47554241 -1.18713379 226.76571655 C-0.64544797 228.33933705 -0.10272212 229.91259992 0.44104004 231.48550415 C1.20610724 233.70018007 1.96698872 235.91624741 2.7265625 238.1328125 C3.0727211 239.13251823 3.0727211 239.13251823 3.4258728 240.15242004 C5 244.77058277 5 244.77058277 5 247 C16.88 247 28.76 247 41 247 C41 266.47 41 285.94 41 306 C29.45 306 17.9 306 6 306 C-3.37846148 334.65213436 -12.75151852 363.30560218 -22 392 C-21.38511719 392.27585937 -20.77023438 392.55171875 -20.13671875 392.8359375 C-16.47929138 394.82846649 -14.60944257 397.96989739 -13.421875 401.92578125 C-12.50985685 407.03110024 -13.40704149 410.41910664 -16 415 C-22.02015529 421.77267471 -22.02015529 421.77267471 -26.92578125 422.3359375 C-38.41396688 422.46844252 -38.41396688 422.46844252 -43 418 C-46.98726549 413.36615092 -48.24179908 409.01343791 -48 403 C-46.58989018 397.80022005 -44.18828815 394.78787357 -40.3046875 391.26171875 C-38 390 -38 390 -35.99240112 389.92501831 C-33.20244309 389.7551678 -31.4576354 389.36238882 -29 388 C-26.37771307 383.70754277 -25.10323575 378.98113264 -23.703125 374.18359375 C-23.26041239 372.76883404 -22.81436836 371.35511295 -22.36517334 369.94239807 C-21.18909447 366.21210406 -20.05939395 362.46927955 -18.93865967 358.7220459 C-17.80862917 354.97330517 -16.63479939 351.23838361 -15.46484375 347.50195312 C-11.16305407 333.71241445 -7.02411109 319.87303845 -3 306 C-7.95 306 -12.9 306 -18 306 C-18 286.53 -18 267.06 -18 247 C-13.05 247 -8.1 247 -3 247 C-5.71925555 238.95022574 -8.43973014 230.90086666 -11.16236782 222.85223579 C-12.42647715 219.11512836 -13.69004617 215.37784005 -14.95239258 211.64013672 C-16.17009824 208.03467588 -17.38920723 204.42969241 -18.60930061 200.82503891 C-19.07509689 199.4480679 -19.54038282 198.07092415 -20.00515556 196.69360733 C-20.65500882 194.76810391 -21.30682725 192.84326407 -21.95874023 190.91845703 C-22.51500343 189.27298386 -22.51500343 189.27298386 -23.08250427 187.5942688 C-23.9191581 185.05885186 -23.9191581 185.05885186 -25 183 C-36.385 182.505 -36.385 182.505 -48 182 C-48.33 181.01 -48.66 180.02 -49 179 C-49.48984375 179.36609375 -49.9796875 179.7321875 -50.484375 180.109375 C-56.28282288 184.30825105 -62.28609058 188.03215232 -68.4375 191.6875 C-75.09749059 195.64527115 -81.71004975 199.65909713 -88.25 203.8125 C-89.38417358 204.53191772 -89.38417358 204.53191772 -90.54125977 205.26586914 C-92.14192818 206.28164287 -93.74242691 207.29768406 -95.34277344 208.31396484 C-100.51356249 211.59487895 -105.69157309 214.86409224 -110.875 218.125 C-111.90399414 218.77702393 -112.93298828 219.42904785 -113.99316406 220.10083008 C-114.9622168 220.70950928 -115.93126953 221.31818848 -116.9296875 221.9453125 C-117.78804199 222.48687988 -118.64639648 223.02844727 -119.53076172 223.58642578 C-121.96321222 224.97893996 -124.37495687 226.02713119 -127 227 C-126.84144531 227.54140625 -126.68289062 228.0828125 -126.51953125 228.640625 C-125.00325399 235.52657585 -124.96339074 243.00386228 -128.6015625 249.18359375 C-132.58997506 254.36407375 -137.43124407 258.81762393 -144 260 C-151.77222057 260.97491268 -157.50730647 259.37852464 -164 255 C-168.8252678 250.90198548 -171.40600432 245.18238052 -172.28515625 238.9921875 C-172.55351083 233.04171631 -171.17666068 227.74830893 -167.453125 223.046875 C-162.47072207 217.7999197 -157.52844904 214.66655459 -150.140625 214.00390625 C-144.39045551 213.99341324 -139.77303297 215.15904541 -135.25 218.75 C-134.1775 219.4925 -133.105 220.235 -132 221 C-126.92822808 219.75527942 -122.30534169 216.31545817 -117.875 213.625 C-116.98973633 213.09044189 -116.10447266 212.55588379 -115.19238281 212.00512695 C-107.75846659 207.4986621 -100.40241848 202.87450755 -93.06640625 198.2109375 C-86.27124548 193.89401183 -79.43307801 189.64585945 -72.60009766 185.38916016 C-65.81568345 181.15565921 -59.0865166 176.84912228 -52.4140625 172.44140625 C-50 171 -50 171 -48 171 C-48.33 166.38 -48.66 161.76 -49 157 C-49.90613037 156.63463135 -50.81226074 156.2692627 -51.74584961 155.89282227 C-55.32299687 154.44980781 -58.89904249 153.00407746 -62.47488403 151.55783081 C-64.11495832 150.89495179 -65.75531856 150.23277981 -67.39596558 149.57131958 C-77.45032899 145.51705157 -87.47076989 141.39561165 -97.4453125 137.1484375 C-100.24056054 135.96472159 -103.03617718 134.78187936 -105.83181763 133.59909058 C-107.65149909 132.82502587 -109.46879957 132.04533971 -111.28366089 131.26004028 C-113.83062055 130.15828185 -116.38491342 129.0755061 -118.94140625 127.99609375 C-119.70023102 127.66149139 -120.45905579 127.32688904 -121.24087524 126.98214722 C-125.21589163 125.26205223 -125.21589163 125.26205223 -129.39819336 125.66821289 C-131.16222351 127.02457887 -131.16222351 127.02457887 -132.6875 129.3125 C-138.07376249 135.57221046 -146.23008476 138.550008 -154.3125 139.3125 C-165.01946982 138.40512968 -172.2880417 134.20758569 -179.38671875 126.29296875 C-184.91681353 118.43300353 -184.94511727 110.19671809 -184 101 C-181.64888805 92.59695174 -176.15120429 86.92741289 -168.68359375 82.68359375 C-160.59351847 78.95670514 -152.15679055 78.58402053 -143.75 81.5625 C-134.69692937 85.73301569 -129.5992401 91.7779127 -126 101 C-125.11011768 103.89351673 -124.86464552 106.47649322 -124.875 109.5 C-124.87113281 110.62921875 -124.87113281 110.62921875 -124.8671875 111.78125 C-124.99865474 113.97752628 -125.43976674 115.87923615 -126 118 C-125.44765686 118.17745255 -124.89531372 118.35490509 -124.32623291 118.53773499 C-118.99175396 120.27950679 -113.79152039 122.22153907 -108.609375 124.37109375 C-107.4462957 124.84930321 -107.4462957 124.84930321 -106.25971985 125.33717346 C-103.75528414 126.36774031 -101.25262525 127.40254539 -98.75 128.4375 C-97.01629549 129.15193744 -95.28248918 129.86612788 -93.54858398 130.58007812 C-89.19501658 132.37366562 -84.8429847 134.17094162 -80.49163818 135.96990967 C-78.11001161 136.95451912 -75.72814578 137.93854717 -73.34619141 138.92236328 C-65.22833549 142.27565336 -57.11272733 145.6343184 -49 149 C-48.67 146.69 -48.34 144.38 -48 142 C-39.42 142 -30.84 142 -22 142 C-21.01 139.03 -20.02 136.06 -19 133 C-18.02735847 130.74141723 -17.01255686 128.5004462 -15.953125 126.28125 C-15.52071754 125.36838226 -15.52071754 125.36838226 -15.07957458 124.43707275 C-14.46129614 123.13261525 -13.84083894 121.82918847 -13.21835327 120.5267334 C-11.54188235 117.01793169 -9.88257729 113.50102895 -8.22265625 109.984375 C-7.87826004 109.25551086 -7.53386383 108.52664673 -7.17903137 107.7756958 C-2.5955579 98.05364703 1.82302898 88.25645553 6.25097656 78.46289062 C6.70741798 77.45412872 6.70741798 77.45412872 7.17308044 76.42498779 C7.99442315 74.6089838 8.81428292 72.79230931 9.6340332 70.97558594 C10.71113333 68.62925951 11.84540982 66.30918036 13 64 C6.565 63.505 6.565 63.505 0 63 C0 42.21 0 21.42 0 0 Z " fill="#FFFFFF" transform="translate(184,0)"/>
<path d="M0 0 C14.52 0 29.04 0 44 0 C52.3254269 24.34282431 60.61844472 48.69626168 68.875 73.0625 C69.10217209 73.73291447 69.32934418 74.40332893 69.56340027 75.09405899 C72.37638294 83.39577422 75.18857336 91.69775768 78 100 C80.10907152 94.00171442 82.21246539 88.00145536 84.3125 82 C84.63736389 81.07181458 84.96222778 80.14362915 85.29693604 79.18731689 C89.65748353 66.71623056 93.95708622 54.22539176 98.19140625 41.7109375 C98.40771761 41.07185707 98.62402897 40.43277664 98.84689522 39.77433014 C100.78829972 34.03764471 102.72793391 28.30036816 104.65859985 22.56005859 C105.86133277 18.98460139 107.06725918 15.41023353 108.2734375 11.8359375 C108.63631363 10.75251068 108.99918976 9.66908386 109.37306213 8.55282593 C109.87168007 7.07720688 109.87168007 7.07720688 110.38037109 5.57177734 C110.67044037 4.70886078 110.96050964 3.84594421 111.2593689 2.95687866 C112 1 112 1 113 0 C114.34544327 -0.09785341 115.69592563 -0.12797985 117.04492188 -0.12939453 C117.90251099 -0.13254669 118.7601001 -0.13569885 119.64367676 -0.13894653 C120.57595093 -0.1369223 121.5082251 -0.13489807 122.46875 -0.1328125 C123.89471497 -0.13424759 123.89471497 -0.13424759 125.3494873 -0.13571167 C127.36368882 -0.13639357 129.37789252 -0.13453862 131.39208984 -0.13037109 C134.48670355 -0.12502298 137.5811721 -0.13031577 140.67578125 -0.13671875 C142.62760449 -0.13605797 144.57942764 -0.13477681 146.53125 -0.1328125 C147.46352417 -0.13483673 148.39579834 -0.13686096 149.35632324 -0.13894653 C150.21391235 -0.13579437 151.07150146 -0.13264221 151.95507812 -0.12939453 C152.71373169 -0.12859894 153.47238525 -0.12780334 154.25402832 -0.12698364 C156 0 156 0 157 1 C157.41392388 3.83393463 157.76858194 6.65470135 158.0859375 9.5 C158.18748138 10.3863916 158.28902527 11.2727832 158.39364624 12.18603516 C158.72698011 15.1233632 159.05190531 18.06152887 159.375 21 C159.54207458 22.50578613 159.54207458 22.50578613 159.71252441 24.04199219 C161.95116637 44.33557554 163.59423967 64.6476029 164.87432861 85.0223999 C164.98455283 86.75691903 165.10090805 88.4910463 165.21826172 90.22509766 C166.42398886 108.11911181 166.0882964 126.07583058 166 144 C156.1 144 146.2 144 136 144 C135.16076637 139.80383184 134.85016351 136.34414102 134.7890625 132.10546875 C134.76300819 130.68415309 134.73636629 129.26284812 134.70922852 127.84155273 C134.69594513 127.08607147 134.68266174 126.33059021 134.66897583 125.55221558 C134.36714003 109.32157674 133.5824299 93.13788885 132.5625 76.9375 C132.47020111 75.44118546 132.47020111 75.44118546 132.3760376 73.91464233 C131.54691328 60.57458998 130.42470231 47.28964494 129 34 C128.62415771 35.10770752 128.24831543 36.21541504 127.86108398 37.35668945 C119.17921974 62.93302031 110.38775464 88.46837518 101.46304321 113.96096802 C98.98710257 121.03332655 96.52204007 128.10941944 94.0625 135.1875 C92.5465625 139.5496875 92.5465625 139.5496875 91 144 C81.43 144 71.86 144 62 144 C53.00224027 118.4736045 44.22358796 92.88543335 35.72485352 67.18823242 C32.26895223 56.74681378 28.78378119 46.32793593 25 36 C22.11775894 38.88224106 22.95297019 47.62277169 22.625 51.75 C22.56130219 52.536026 22.49760437 53.322052 22.43197632 54.13189697 C20.05350636 84.02223327 19.19921451 114.04515247 18 144 C8.76 144 -0.48 144 -10 144 C-10.58075757 103.92772791 -7.45220223 64.18789206 -3.18359375 24.36328125 C-3.09405426 23.519328 -3.00451477 22.67537476 -2.91226196 21.80584717 C-2.11098394 14.50209931 -1.04099454 7.28696179 0 0 Z " fill="#FFFFFF" transform="translate(676,248)"/>
<path d="M0 0 C74.25802365 0 74.25802365 0 89.4375 11.375 C96.3813041 18.48816518 99.04029002 25.83826564 99.375 35.75 C99.17381625 46.28979296 96.23167729 53.40947824 89.09765625 61.125 C86.87561081 63.11118586 84.59941061 64.55337148 82 66 C82.9178125 66.40089844 83.835625 66.80179687 84.78125 67.21484375 C94.53907405 71.65759248 101.61299853 76.57433149 106.5 86.5 C109.89766174 96.22277309 109.32093969 108.25387715 105.2578125 117.64453125 C98.77870291 129.77777064 89.03503915 136.79732793 76.0625 140.9375 C50.89630581 148.04968531 28.34418622 144 0 144 C0 96.48 0 48.96 0 0 Z M30 22 C30 34.21 30 46.42 30 59 C34.16625 59.061875 38.3325 59.12375 42.625 59.1875 C43.92775879 59.21481201 45.23051758 59.24212402 46.57275391 59.27026367 C54.27830571 59.32573792 59.05428442 58.8787675 64.75 53.3125 C68.43648772 48.48439027 69.27646818 43.34683916 68.875 37.375 C68.21552483 33.0698868 66.97569577 30.28089534 64 27 C58.29380027 23.27545122 52.71199849 21.86066259 45.91796875 21.90234375 C45.0777417 21.90484131 44.23751465 21.90733887 43.37182617 21.90991211 C42.32099854 21.91901611 41.2701709 21.92812012 40.1875 21.9375 C36.825625 21.958125 33.46375 21.97875 30 22 Z M30 81 C30 94.53 30 108.06 30 122 C34.24875 122.061875 38.4975 122.12375 42.875 122.1875 C44.85282471 122.22846802 44.85282471 122.22846802 46.87060547 122.27026367 C56.76807253 122.33948193 65.01112938 121.39405444 72.625 114.6953125 C77.21561588 109.03529178 76.66353417 101.89054712 76 95 C74.52749661 89.68780422 70.91948575 86.83069186 66.390625 84.04296875 C58.51173844 80.60561138 50.96259171 80.75504605 42.5 80.875 C36.3125 80.936875 36.3125 80.936875 30 81 Z " fill="#FFFFFF" transform="translate(431,248)"/>
<path d="M0 0 C76.63675743 0 76.63675743 0 90.796875 13.4921875 C97.18503037 20.76381117 99.35192112 28.81801636 99.2109375 38.3203125 C98.49764124 47.38181683 94.72940903 55.86709301 87.83203125 61.89453125 C85.92572091 63.33522951 84.00551163 64.70201658 82 66 C82.79664063 66.37511719 83.59328125 66.75023437 84.4140625 67.13671875 C96.01598548 72.74008058 102.34068601 78.18437992 107.375 90.3125 C109.27808955 101.54072834 108.34283143 112.59693502 102.4921875 122.5703125 C91.96908942 137.00898196 78.16476534 140.56704693 61 144 C40.87 144 20.74 144 0 144 C0 96.48 0 48.96 0 0 Z M30 22 C30 34.21 30 46.42 30 59 C33.96 59.0825 37.92 59.165 42 59.25 C43.23234375 59.28641602 44.4646875 59.32283203 45.734375 59.36035156 C52.66604343 59.42993761 57.13233304 58.76765984 63 55 C68.25558694 49.47489578 68.35957711 44.59748409 68.26953125 37.23828125 C67.87863829 32.54190067 67.06737584 30.60416662 64 27 C58.38085251 23.18742602 52.66425653 21.86095548 45.91796875 21.90234375 C45.0777417 21.90484131 44.23751465 21.90733887 43.37182617 21.90991211 C42.32099854 21.91901611 41.2701709 21.92812012 40.1875 21.9375 C36.825625 21.958125 33.46375 21.97875 30 22 Z M30 81 C30 94.53 30 108.06 30 122 C34.24875 122.061875 38.4975 122.12375 42.875 122.1875 C44.85282471 122.22846802 44.85282471 122.22846802 46.87060547 122.27026367 C55.21297543 122.32860631 63.5096311 121.89831005 70.4375 116.75 C75.62656555 111.18124673 76.5948955 106.15215277 76.33984375 98.71484375 C75.70413784 93.63650343 74.14173765 89.85743619 70.234375 86.46875 C61.57747529 80.60659744 52.60910335 80.73170739 42.5 80.875 C36.3125 80.936875 36.3125 80.936875 30 81 Z " fill="#FFFFFF" transform="translate(548,248)"/>
<path d="M0 0 C1.90640259 0.01135986 1.90640259 0.01135986 3.85131836 0.02294922 C21.56552549 0.33310915 37.33238244 4.50977097 50.4375 17.08984375 C66.54476349 33.89620722 70.17396732 55.43767496 69.90234375 77.96484375 C69.36282472 97.1294979 63.41100522 116.51688263 50.0625 130.6875 C32.43833802 147.22342306 11.74756563 150.17875696 -11.51025391 149.57373047 C-28.44660336 148.75037422 -44.63965287 142.0787701 -56.3984375 129.7578125 C-72.67676969 110.02448736 -73.34587438 82.90818433 -71.04003906 58.56054688 C-68.87064627 42.74180167 -61.85807294 28.47370943 -50.3125 17.4375 C-49.796875 16.8909375 -49.28125 16.344375 -48.75 15.78125 C-44.94626543 12.0567599 -40.37271199 9.68429366 -35.6875 7.25 C-35.06093506 6.91661621 -34.43437012 6.58323242 -33.78881836 6.23974609 C-23.09280553 0.92583748 -11.78428186 -0.09878381 0 0 Z M-29.2890625 34.4765625 C-38.69897072 45.80849452 -40.70958821 59.23277085 -40.6875 73.5625 C-40.68588867 74.65618896 -40.68427734 75.74987793 -40.68261719 76.87670898 C-40.4644977 91.39341615 -37.53022508 105.524785 -27.51171875 116.54296875 C-17.71533995 124.98212278 -6.72993942 126.14847502 5.60644531 125.60351562 C15.43817866 124.81919152 22.18848005 119.48987853 28.6875 112.4375 C38.77082978 100.59947313 39.56461402 82.26106307 38.6875 67.4375 C37.47723483 53.95940262 33.23694603 40.41406793 22.93359375 31.0546875 C7.07452177 19.63615567 -15.4406843 20.19029092 -29.2890625 34.4765625 Z " fill="#FFFFFF" transform="translate(761.3125,24.5625)"/>
<path d="M0 0 C79.76086957 0 79.76086957 0 94.8671875 14.5234375 C102.9142703 23.86748603 103.69365848 34.09550967 103.17919922 45.91015625 C102.34283718 55.66391515 96.81887017 63.63824101 89.8125 70.125 C86.81573914 72.54697885 83.65464711 74.36105775 80.26171875 76.1796875 C79.27518311 76.71062012 78.28864746 77.24155273 77.2722168 77.78857422 C76.52238525 78.18834473 75.77255371 78.58811523 75 79 C91.47161558 108.53904855 91.47161558 108.53904855 109.15698242 137.35717773 C112 141.79436556 112 141.79436556 112 144 C100.12 144 88.24 144 76 144 C73.958125 140.184375 71.91625 136.36875 69.8125 132.4375 C63.50359317 120.68792559 57.13538041 108.95977519 50.35107422 97.47607422 C49 95 49 95 48.01220703 92.38720703 C46.96561973 89.502471 46.96561973 89.502471 44 86 C37.07 85.505 37.07 85.505 30 85 C30 104.47 30 123.94 30 144 C20.1 144 10.2 144 0 144 C0 96.48 0 48.96 0 0 Z M30 23 C30 36.2 30 49.4 30 63 C48.72630875 64.42376915 48.72630875 64.42376915 65.16796875 57.05859375 C70.51928321 51.2586661 71.35662282 46.81671212 71.28125 39.015625 C70.77099637 33.54457217 68.56167418 30.52057749 64.625 26.6875 C59.81189055 23.59335821 55.39303254 22.74858384 49.7265625 22.8046875 C48.68580566 22.80968262 47.64504883 22.81467773 46.57275391 22.81982422 C45.26999512 22.83803223 43.96723633 22.85624023 42.625 22.875 C36.375625 22.936875 36.375625 22.936875 30 23 Z " fill="#FFFFFF" transform="translate(861,248)"/>
<path d="M0 0 C79.58579882 0 79.58579882 0 94 14 C101.48112563 22.93488148 103.62093069 31.6771977 103.34375 43.21484375 C102.3645994 53.9966271 98.10689053 62.43904771 90.12109375 69.7109375 C85.19089874 73.63517353 79.69795301 76.36119389 74 79 C74.41507813 79.66 74.83015625 80.32 75.2578125 81 C81.10735161 90.39842266 86.67612206 99.95446623 92.234375 109.52734375 C94.81213714 113.96659712 97.40741647 118.39497419 100.015625 122.81640625 C100.66192871 123.9149292 101.30823242 125.01345215 101.97412109 126.14526367 C103.22374524 128.26846915 104.47658351 130.38978679 105.73291016 132.5090332 C106.29284668 133.46253662 106.8527832 134.41604004 107.4296875 135.3984375 C107.92710449 136.24067871 108.42452148 137.08291992 108.93701172 137.95068359 C110 140 110 140 110 142 C110.66 142 111.32 142 112 142 C112 142.66 112 143.32 112 144 C100.12 144 88.24 144 76 144 C72.5040625 137.6578125 72.5040625 137.6578125 68.9375 131.1875 C62.51895366 119.54762837 56.07709228 107.92094598 49.61108398 96.30737305 C49.01884033 95.24301025 48.42659668 94.17864746 47.81640625 93.08203125 C47.29506104 92.14593018 46.77371582 91.2098291 46.23657227 90.24536133 C45.46496981 88.84428971 44.7153142 87.4306284 44 86 C37.07 85.505 37.07 85.505 30 85 C30 104.47 30 123.94 30 144 C20.1 144 10.2 144 0 144 C0 96.48 0 48.96 0 0 Z M30 23 C30 36.2 30 49.4 30 63 C48.49990969 64.40090924 48.49990969 64.40090924 64.91015625 57.3515625 C69.91846995 51.92884932 71.50104309 46.89310885 71.3046875 39.5625 C70.70497304 34.51874763 69.05257713 30.66023342 65.05859375 27.4296875 C60.00188757 24.17030046 56.07949928 22.87278293 50.01953125 22.90234375 C48.97128174 22.90484131 47.92303223 22.90733887 46.84301758 22.90991211 C45.51294678 22.91901611 44.18287598 22.92812012 42.8125 22.9375 C38.584375 22.958125 34.35625 22.97875 30 23 Z " fill="#FFFFFF" transform="translate(1212,248)"/>
<path d="M0 0 C29.7 0 59.4 0 90 0 C90 7.59 90 15.18 90 23 C70.2 23 50.4 23 30 23 C30 34.55 30 46.1 30 58 C47.16 58 64.32 58 82 58 C82 65.59 82 73.18 82 81 C64.84 81 47.68 81 30 81 C30 94.2 30 107.4 30 121 C50.13 121 70.26 121 91 121 C91 128.59 91 136.18 91 144 C60.97 144 30.94 144 0 144 C0 96.48 0 48.96 0 0 Z " fill="#FFFFFF" transform="translate(1101,248)"/>
<path d="M0 0 C10.56 0 21.12 0 32 0 C34.03159264 5.41758036 35.91240525 10.75623524 37.57421875 16.28125 C38.0738781 17.92173465 38.57389533 19.56211033 39.07421875 21.20239258 C39.33638184 22.06410065 39.59854492 22.92580872 39.86865234 23.81362915 C45.17618444 41.22590284 50.74284462 58.54387938 56.5 75.8125 C56.83857025 76.83134277 57.1771405 77.85018555 57.52597046 78.89990234 C61.11764943 89.69600834 64.75267568 100.4404022 69 111 C81.14463891 76.96461778 92.67373012 42.74283731 102.0859375 7.83740234 C102.45332031 6.47736084 102.45332031 6.47736084 102.828125 5.08984375 C103.0334082 4.31503662 103.23869141 3.54022949 103.45019531 2.74194336 C104 1 104 1 105 0 C107.14558827 -0.08775605 109.29404421 -0.10695219 111.44140625 -0.09765625 C112.74658203 -0.09443359 114.05175781 -0.09121094 115.39648438 -0.08789062 C116.7851569 -0.07953401 118.17382877 -0.07106905 119.5625 -0.0625 C120.95507656 -0.05748666 122.34765481 -0.05292347 123.74023438 -0.04882812 C127.1601987 -0.03699434 130.58007844 -0.0205088 134 0 C132.73895776 6.05393917 131.20685795 11.95445477 129.375 17.859375 C129.11625595 18.70095657 128.8575119 19.54253815 128.59092712 20.40962219 C127.73261581 23.19143253 126.8672334 25.97095884 126 28.75 C125.69820831 29.71952606 125.39641663 30.68905212 125.08547974 31.68795776 C114.96642408 64.12347698 103.95887903 96.28691841 92.4375 128.25 C92.16146942 129.01692169 91.88543884 129.78384338 91.6010437 130.57400513 C90.84080635 132.68099303 90.07597286 134.78622912 89.30859375 136.890625 C88.88376709 138.05625977 88.45894043 139.22189453 88.02124023 140.42285156 C87 143 87 143 86 144 C83.26105915 144.08858646 80.5474673 144.11523479 77.80859375 144.09765625 C76.98875504 144.0962413 76.16891632 144.09482635 75.32423401 144.09336853 C72.69528618 144.08775289 70.06642227 144.07519779 67.4375 144.0625 C65.65950643 144.05748701 63.88151154 144.05292376 62.10351562 144.04882812 C57.73564455 144.03777839 53.36783652 144.02050331 49 144 C35.22367447 106.37816623 21.770417 68.6893919 9.2796669 30.61997223 C8.6265581 28.62974803 7.97264781 26.63978834 7.31869507 24.64984131 C6.09594688 20.92689304 4.87938771 17.20194102 3.6640625 13.4765625 C3.29292831 12.34522888 2.92179413 11.21389526 2.53941345 10.04827881 C2.20365799 9.01479309 1.86790253 7.98130737 1.52197266 6.91650391 C1.22666656 6.01122955 0.93136047 5.1059552 0.62710571 4.17324829 C0 2 0 2 0 0 Z " fill="#FFFFFF" transform="translate(947,27)"/>
<path d="M0 0 C10.56 0 21.12 0 32 0 C32.928125 2.908125 33.85625 5.81625 34.8125 8.8125 C35.14958984 9.86791992 35.48667969 10.92333984 35.83398438 12.01074219 C37.67687507 17.79589906 39.49440761 23.58789947 41.28125 29.390625 C49.63602734 56.44568651 58.81415433 83.21766896 68 110 C70.33908231 106.49137654 71.59933821 102.86534656 72.984375 98.91796875 C73.27665985 98.09242493 73.5689447 97.2668811 73.87008667 96.4163208 C74.83648697 93.67558937 75.79426932 90.93196934 76.75 88.1875 C77.07925476 87.24504425 77.40850952 86.3025885 77.7477417 85.33157349 C83.04213785 70.13410405 87.96147848 54.83967788 92.625 39.4375 C92.91209839 38.49006927 93.19919678 37.54263855 93.49499512 36.5664978 C97.16424436 24.42191679 100.64343047 12.23463354 104 0 C113.9 0 123.8 0 134 0 C132.03387729 7.86449084 129.99538605 15.52668589 127.515625 23.21875 C127.18336914 24.25867096 126.85111328 25.29859192 126.50878906 26.37002563 C125.42730949 29.74824113 124.33931827 33.12430454 123.25 36.5 C122.87484253 37.66561462 122.49968506 38.83122925 122.11315918 40.03216553 C110.8544239 74.99002014 98.9595127 109.63544946 86 144 C73.79 144 61.58 144 49 144 C34.52491278 106.65847065 21.43829078 68.808659 8.95196533 30.76025009 C8.31377149 28.81637283 7.67418544 26.87295772 7.03442383 24.92959595 C5.8468069 21.31553165 4.66606053 17.69931191 3.48828125 14.08203125 C3.13300858 13.00026611 2.7777359 11.91850098 2.41169739 10.80395508 C2.09190414 9.81524414 1.7721109 8.8265332 1.44262695 7.80786133 C1.02228935 6.51662102 1.02228935 6.51662102 0.59346008 5.19929504 C0 3 0 3 0 0 Z " fill="#FFFFFF" transform="translate(541,27)"/>
<path d="M0 0 C28.05 0 56.1 0 85 0 C85 7.92 85 15.84 85 24 C66.85 24 48.7 24 30 24 C30 35.22 30 46.44 30 58 C45.84 58 61.68 58 78 58 C78 65.92 78 73.84 78 82 C62.16 82 46.32 82 30 82 C30 94.87 30 107.74 30 121 C48.48 121 66.96 121 86 121 C86 128.59 86 136.18 86 144 C57.62 144 29.24 144 0 144 C0 96.48 0 48.96 0 0 Z " fill="#FFFFFF" transform="translate(431,27)"/>
<path d="M0 0 C28.05 0 56.1 0 85 0 C85 7.92 85 15.84 85 24 C66.52 24 48.04 24 29 24 C29 35.22 29 46.44 29 58 C44.84 58 60.68 58 77 58 C77 65.92 77 73.84 77 82 C61.16 82 45.32 82 29 82 C29 94.87 29 107.74 29 121 C47.81 121 66.62 121 86 121 C86 128.59 86 136.18 86 144 C57.62 144 29.24 144 0 144 C0 96.48 0 48.96 0 0 Z " fill="#FFFFFF" transform="translate(1108,27)"/>
<path d="M0 0 C1.15242188 0.35964844 2.30484375 0.71929687 3.4921875 1.08984375 C6.34642798 2.01598876 9.1776073 2.98166417 12 4 C11.2784563 8.8752953 9.4750323 13.21665639 7.625 17.75 C7.32078125 18.52988281 7.0165625 19.30976563 6.703125 20.11328125 C6.40148438 20.85449219 6.09984375 21.59570312 5.7890625 22.359375 C5.51787598 23.03452148 5.24668945 23.70966797 4.96728516 24.40527344 C4 26 4 26 1 27 C-1.92578125 26.2578125 -1.92578125 26.2578125 -5.3125 25.125 C-18.67903591 20.68501246 -34.2548255 19.62741275 -47.1328125 26.06640625 C-57.51081294 32.04460802 -63.08366079 40.47743376 -66.58447266 51.90844727 C-70.98959782 68.30841963 -69.98651031 86.93655416 -62 102 C-56.75113115 111.01767875 -48.80948144 115.94458775 -39 119 C-25.19735628 121.78405598 -12.35608706 119.69929441 1 116 C2.33221524 115.66222574 3.66486942 115.32606017 5 115 C12 132.02030457 12 132.02030457 12 138 C8.85583885 138.96387694 5.70938374 139.92005292 2.5625 140.875 C1.68400391 141.14441406 0.80550781 141.41382813 -0.09960938 141.69140625 C-22.68000591 148.52385096 -46.03579152 148.28191747 -67.6875 138.125 C-83.50650602 129.38116123 -93.21260596 116.65232715 -99.1328125 99.76953125 C-105.50429911 77.34560993 -103.69787088 50.48796389 -92.33203125 29.9921875 C-90.6417835 27.25346377 -88.87350722 24.61615873 -87 22 C-86.55140625 21.36578125 -86.1028125 20.7315625 -85.640625 20.078125 C-78.72215822 11.20620877 -68.49538622 4.74147451 -58 1 C-56.92363281 0.608125 -55.84726563 0.21625 -54.73828125 -0.1875 C-37.82869411 -5.36280403 -16.86710833 -5.37498519 0 0 Z " fill="#FFFFFF" transform="translate(1488,249)"/>
<path d="M0 0 C9.9 0 19.8 0 30 0 C30 39.93 30 79.86 30 121 C48.15 121 66.3 121 85 121 C85 128.59 85 136.18 85 144 C56.95 144 28.9 144 0 144 C0 96.48 0 48.96 0 0 Z " fill="#FFFFFF" transform="translate(864,27)"/>
<path d="M0 0 C19.47 0 38.94 0 59 0 C59 19.47 59 38.94 59 59 C47.45 59 35.9 59 24 59 C14.62153852 87.65213436 5.24848148 116.30560218 -4 145 C-3.38511719 145.27585937 -2.77023438 145.55171875 -2.13671875 145.8359375 C1.52070862 147.82846649 3.39055743 150.96989739 4.578125 154.92578125 C5.49014315 160.03110024 4.59295851 163.41910664 2 168 C-4.02015529 174.77267471 -4.02015529 174.77267471 -8.92578125 175.3359375 C-20.41396688 175.46844252 -20.41396688 175.46844252 -25 171 C-28.98726549 166.36615092 -30.24179908 162.01343791 -30 156 C-28.58989018 150.80022005 -26.18828815 147.78787357 -22.3046875 144.26171875 C-20 143 -20 143 -17.99240112 142.92501831 C-15.20244309 142.7551678 -13.4576354 142.36238882 -11 141 C-8.37771307 136.70754277 -7.10323575 131.98113264 -5.703125 127.18359375 C-5.26041239 125.76883404 -4.81436836 124.35511295 -4.36517334 122.94239807 C-3.18909447 119.21210406 -2.05939395 115.46927955 -0.93865967 111.7220459 C0.19137083 107.97330517 1.36520061 104.23838361 2.53515625 100.50195312 C6.83694593 86.71241445 10.97588891 72.87303845 15 59 C10.05 59 5.1 59 0 59 C0 39.53 0 20.06 0 0 Z " fill="#FFFFFF" transform="translate(166,247)"/>
<path d="M0 0 C7.17576146 6.69837192 12.21403271 14.46845227 13.2578125 24.3359375 C13.63486794 36.34089605 11.05572429 45.27948138 3.22265625 54.45703125 C-3.56264165 61.10662319 -11.37519502 65.40762635 -20.9453125 65.984375 C-22.85763672 65.96310547 -22.85763672 65.96310547 -24.80859375 65.94140625 C-26.09121094 65.93496094 -27.37382812 65.92851562 -28.6953125 65.921875 C-31.42251946 65.7881579 -33.52849541 65.46452275 -36.12109375 64.75390625 C-36.62769531 66.63916016 -36.62769531 66.63916016 -37.14453125 68.5625 C-39.47360055 76.32287134 -42.63590412 83.769966 -45.70117188 91.26147461 C-46.7555091 93.83942766 -47.80206705 96.42044122 -48.84765625 99.00195312 C-49.51387328 100.63950592 -50.18052387 102.2768824 -50.84765625 103.9140625 C-51.31795761 105.07325951 -51.31795761 105.07325951 -51.79776001 106.25587463 C-54.00522421 111.63803671 -54.00522421 111.63803671 -55.12109375 112.75390625 C-57.45406808 112.79483562 -59.788146 112.79632348 -62.12109375 112.75390625 C-61.5172727 109.33469712 -60.65169063 106.27391949 -59.35522461 103.05541992 C-58.99492661 102.15486374 -58.6346286 101.25430756 -58.26341248 100.32646179 C-57.87484573 99.36794815 -57.48627899 98.40943451 -57.0859375 97.421875 C-56.68782364 96.43012772 -56.28970978 95.43838043 -55.87953186 94.4165802 C-54.60993034 91.25654439 -53.33434744 88.09896268 -52.05859375 84.94140625 C-51.19556785 82.79638312 -50.33293302 80.6512026 -49.47070312 78.50585938 C-47.35869738 73.25337513 -45.24177863 68.00289186 -43.12109375 62.75390625 C-43.90355469 62.13080566 -44.68601562 61.50770508 -45.4921875 60.86572266 C-56.14764841 52.306126 -61.41831144 43.88487603 -62.96484375 30.14453125 C-63.42261696 20.21085256 -59.62384844 12.33236742 -54.43359375 4.06640625 C-39.23849266 -11.12869484 -17.09723396 -13.78140677 0 0 Z " fill="#FFFFFF" transform="translate(354.12109375,82.24609375)"/>
<path d="M0 0 C10.23 0 20.46 0 31 0 C31 47.52 31 95.04 31 144 C20.77 144 10.54 144 0 144 C0 96.48 0 48.96 0 0 Z " fill="#FFFFFF" transform="translate(987,248)"/>
<path d="M0 0 C9.9 0 19.8 0 30 0 C30 47.52 30 95.04 30 144 C20.1 144 10.2 144 0 144 C0 96.48 0 48.96 0 0 Z " fill="#FFFFFF" transform="translate(1338,248)"/>
<path d="M0 0 C21.12 0 42.24 0 64 0 C64 20.79 64 41.58 64 63 C42.88 63 21.76 63 0 63 C0 42.21 0 21.42 0 0 Z " fill="#FFFFFF" transform="translate(184,0)"/>
<path d="M0 0 C7.09907314 4.70360382 11.12823573 10.9138231 13.62109375 19.01953125 C14.042082 21.21995437 14.13267021 23.26029901 14.125 25.5 C14.12886719 26.62921875 14.12886719 26.62921875 14.1328125 27.78125 C14.00134526 29.97752628 13.56023326 31.87923615 13 34 C13.55315887 34.17786041 14.10631775 34.35572083 14.67623901 34.53897095 C19.98426922 36.27287545 25.16219685 38.20029303 30.3203125 40.3359375 C31.47518913 40.81004562 31.47518913 40.81004562 32.65339661 41.29373169 C35.14519889 42.31777114 37.63514519 43.34623559 40.125 44.375 C41.85353764 45.08673274 43.5821353 45.79831972 45.31079102 46.50976562 C60.90411815 52.9342088 76.46135983 59.44450308 92 66 C92 68.31 92 70.62 92 73 C85.31872076 71.12391327 78.94494336 68.8827124 72.56640625 66.15625 C71.69818237 65.79013611 70.8299585 65.42402222 69.9354248 65.04681396 C68.09131594 64.26872648 66.24812086 63.48847011 64.40579224 62.70617676 C61.5334447 61.48767421 58.65780097 60.27729743 55.78100586 59.06933594 C47.951956 55.78099396 40.12660271 52.48451274 32.31703186 49.15014648 C30.39256176 48.33095499 28.46546779 47.51839269 26.53686523 46.70898438 C24.27577484 45.75948847 22.01973141 44.7978527 19.76977539 43.82226562 C18.78485107 43.41169922 17.79992676 43.00113281 16.78515625 42.578125 C15.94863525 42.22137695 15.11211426 41.86462891 14.25024414 41.49707031 C11.98543379 40.79131025 11.98543379 40.79131025 9.80639648 41.75683594 C7.82239302 42.97526637 7.82239302 42.97526637 6.3125 45.3125 C0.92623751 51.57221046 -7.23008476 54.550008 -15.3125 55.3125 C-26.01946982 54.40512968 -33.2880417 50.20758569 -40.38671875 42.29296875 C-45.91681353 34.43300353 -45.94511727 26.19671809 -45 17 C-42.64888805 8.59695174 -37.15120429 2.92741289 -29.68359375 -1.31640625 C-19.80588934 -5.8668094 -9.43005704 -5.3590712 0 0 Z " fill="#FFFFFF" transform="translate(45,84)"/>
<path d="M0 0 C0.59375 3.09375 0.59375 3.09375 0 7 C-2.79227742 9.74671579 -6.12090993 11.55323895 -9.5 13.5 C-11.53652663 14.73165791 -13.57298261 15.96343265 -15.609375 17.1953125 C-16.66833984 17.8234082 -17.72730469 18.45150391 -18.81835938 19.09863281 C-22.8570093 21.51215381 -26.83570695 24.01430882 -30.81494141 26.52416992 C-41.63601005 33.34786992 -52.53798025 40.04231762 -63.44824219 46.72216797 C-69.60205017 50.48216065 -69.60205017 50.48216065 -75.6171875 54.45703125 C-78 56 -78 56 -80 56 C-79.84144531 56.54140625 -79.68289062 57.0828125 -79.51953125 57.640625 C-78.00325399 64.52657585 -77.96339074 72.00386228 -81.6015625 78.18359375 C-85.58997506 83.36407375 -90.43124407 87.81762393 -97 89 C-104.77222057 89.97491268 -110.50730647 88.37852464 -117 84 C-121.8252678 79.90198548 -124.40600432 74.18238052 -125.28515625 67.9921875 C-125.55351083 62.04171631 -124.17666068 56.74830893 -120.453125 52.046875 C-115.47072207 46.7999197 -110.52844904 43.66655459 -103.140625 43.00390625 C-97.39045551 42.99341324 -92.77303297 44.15904541 -88.25 47.75 C-87.1775 48.4925 -86.105 49.235 -85 50 C-79.92822808 48.75527942 -75.30534169 45.31545817 -70.875 42.625 C-69.98973633 42.09044189 -69.10447266 41.55588379 -68.19238281 41.00512695 C-60.75846659 36.4986621 -53.40241848 31.87450755 -46.06640625 27.2109375 C-39.27073017 22.89368446 -32.43276033 18.64400224 -25.59790039 14.38916016 C-21.19704134 11.64456915 -16.80541843 8.89207579 -12.46875 6.046875 C-11.81688721 5.61979248 -11.16502441 5.19270996 -10.4934082 4.75268555 C-8.8285297 3.65544576 -7.16982663 2.548851 -5.51171875 1.44140625 C-3 0 -3 0 0 0 Z " fill="#FFFFFF" transform="translate(137,171)"/>
<path d="M0 0 C2.31 0 4.62 0 7 0 C6.40628435 5.03924055 5.31173582 9.67079867 3.71508789 14.49243164 C3.48406876 15.20558029 3.25304962 15.91872894 3.01502991 16.65348816 C2.25635853 18.99085894 1.48958695 21.32548384 0.72265625 23.66015625 C0.19029395 25.29471436 -0.34156349 26.92943697 -0.87294006 28.5643158 C-2.26938463 32.85605748 -3.67275464 37.14550339 -5.07757568 41.43450928 C-6.50326917 45.79153139 -7.92219698 50.15075516 -9.34179688 54.50976562 C-11.41962025 60.8866361 -13.49999908 67.2626621 -15.58569336 73.63696289 C-15.80134949 74.29634857 -16.01700562 74.95573425 -16.23919678 75.63510132 C-17.48081465 79.42744519 -18.73476206 83.21547271 -20 87 C-19.4225 87.20625 -18.845 87.4125 -18.25 87.625 C-14.6227589 89.84164734 -12.64499609 92.85146574 -11.421875 96.92578125 C-10.50985685 102.03110024 -11.40704149 105.41910664 -14 110 C-20.02015529 116.77267471 -20.02015529 116.77267471 -24.92578125 117.3359375 C-36.41396688 117.46844252 -36.41396688 117.46844252 -41 113 C-44.98726549 108.36615092 -46.24179908 104.01343791 -46 98 C-44.58989018 92.80022005 -42.18828815 89.78787357 -38.3046875 86.26171875 C-36 85 -36 85 -33.99116516 84.92378235 C-31.20310955 84.75295632 -29.45638957 84.36061484 -27 83 C-24.38868465 78.71822579 -23.12730687 74.00390651 -21.73828125 69.21875 C-21.29805855 67.80636034 -20.85440755 66.39503514 -20.40751648 64.98474121 C-19.2369652 61.25966695 -18.11224597 57.52226524 -16.99694824 53.78033447 C-15.87490609 50.04209506 -14.71278949 46.31642612 -13.55273438 42.58984375 C-12.00004042 37.59083979 -10.45939318 32.58849677 -8.93708611 27.58015442 C-6.12433367 18.32949775 -3.14691602 9.14231268 0 0 Z " fill="#FFFFFF" transform="translate(182,305)"/>
<path d="M0 0 C19.47 0 38.94 0 59 0 C59 7.59 59 15.18 59 23 C39.53 23 20.06 23 0 23 C0 15.41 0 7.82 0 0 Z " fill="#FFFFFF" transform="translate(1029,325)"/>
<path d="M0 0 C3.3125 -0.3125 3.3125 -0.3125 7 0 C8.40429688 1.87548828 8.40429688 1.87548828 10 5 C10.37157227 5.72048523 10.74314453 6.44097046 11.12597656 7.18328857 C12.50804144 9.88175969 13.86517872 12.59181526 15.21875 15.3046875 C15.96747375 16.80069992 15.96747375 16.80069992 16.73132324 18.32693481 C17.78459385 20.43279679 18.83685837 22.53916223 19.88818359 24.64599609 C21.49148656 27.85794476 23.09903213 31.06774404 24.70703125 34.27734375 C25.73202729 36.32799683 26.75677508 38.37877403 27.78125 40.4296875 C28.2594519 41.38406708 28.73765381 42.33844666 29.23034668 43.32174683 C31.64124809 48.16041625 33.93446122 53.00369882 36 58 C36.85271484 58.03867187 36.85271484 58.03867187 37.72265625 58.078125 C43.54263073 58.50563565 47.28685174 59.48824247 52 63 C55.73716955 67.79124302 56.65868403 71.57674085 56.3828125 77.63671875 C55.58447454 82.56523371 52.97625021 85.15997075 49.3125 88.3125 C43.77490135 91.13354082 39.23594233 91.63351699 33.25 89.9375 C28.98194199 87.3930808 26.25259236 84.50518472 24 80 C23.23031878 73.09810449 24.03960505 68.69306773 28 63 C28.66 63 29.32 63 30 63 C29.71264984 62.42752029 29.42529968 61.85504059 29.12924194 61.26521301 C26.108891 55.24682532 23.09147828 49.2269709 20.07568359 43.20629883 C18.95337291 40.96667195 17.83034112 38.72740626 16.70654297 36.48852539 C0 3.20166667 0 3.20166667 0 0 Z " fill="#FFFFFF" transform="translate(293,225)"/>
<path d="M0 0 C10.56 0 21.12 0 32 0 C32 10.23 32 20.46 32 31 C21.44 31 10.88 31 0 31 C0 25.06 0 19.12 0 13 C0.66 13 1.32 13 2 13 C1.67 11.96875 1.34 10.9375 1 9.875 C-0.15395015 6.26890579 0 4.14593624 0 0 Z " fill="#FFFFFF" transform="translate(273,195)"/>
<path d="M0 0 C3.82551482 0.66908621 7.32965942 1.73749068 10.98242188 3.05029297 C12.76344299 3.6876387 12.76344299 3.6876387 14.58044434 4.33786011 C15.87659867 4.805824 17.17269898 5.27393754 18.46875 5.7421875 C19.82694209 6.23030658 21.18522024 6.71818628 22.5435791 7.20584106 C25.40583892 8.23427779 28.26720251 9.26515951 31.12792969 10.29785156 C34.69937405 11.58697102 38.27265945 12.87088646 41.84660339 14.1530571 C56.44849113 19.39343946 71.01944479 24.709946 85.53125 30.1953125 C86.48036507 30.55279886 86.48036507 30.55279886 87.44865417 30.91750717 C89.21238355 31.58269486 90.97440551 32.25240457 92.73632812 32.92236328 C93.73281372 33.30079376 94.72929932 33.67922424 95.75598145 34.06912231 C98 35 98 35 99 36 C99.04080783 37.99958364 99.04254356 40.00045254 99 42 C91.11968734 40.49597035 83.79869687 37.90470251 76.2890625 35.125 C74.95430982 34.63566401 73.61937518 34.14682407 72.28427124 33.65844727 C68.77143892 32.37190602 65.26117395 31.078498 61.75140381 29.78363037 C58.27855252 28.50380208 54.80321506 27.23076503 51.328125 25.95703125 C34.20447281 19.67672909 17.09984136 13.34480737 0 7 C0 4.69 0 2.38 0 0 Z " fill="#FFFFFF" transform="translate(176,166)"/>
<path d="M0 0 C2.31 0 4.62 0 7 0 C6.35483075 4.13388 4.99621173 7.54001328 3.25390625 11.3359375 C2.97100739 11.95601181 2.68810852 12.57608612 2.39663696 13.21495056 C1.45706905 15.27070058 0.50988041 17.32284002 -0.4375 19.375 C-1.09961022 20.81906767 -1.76130429 22.26332622 -2.42260742 23.70776367 C-4.22110744 27.63171284 -6.02689961 31.5522646 -7.83459473 35.47198486 C-9.03785645 38.08211879 -10.23936762 40.69305244 -11.44042969 43.30419922 C-15.41847918 51.95195882 -19.40121251 60.59756084 -23.39453125 69.23828125 C-23.73036224 69.96603256 -24.06619324 70.69378387 -24.41220093 71.44358826 C-25.89670216 74.65262011 -27.39006619 77.85167372 -29 81 C-31.31 81 -33.62 81 -36 81 C-35.35483075 76.86612 -33.99621173 73.45998672 -32.25390625 69.6640625 C-31.97100739 69.04398819 -31.68810852 68.42391388 -31.39663696 67.78504944 C-30.45706905 65.72929942 -29.50988041 63.67715998 -28.5625 61.625 C-27.90038978 60.18093233 -27.23869571 58.73667378 -26.57739258 57.29223633 C-24.77889256 53.36828716 -22.97310039 49.4477354 -21.16540527 45.52801514 C-19.96214355 42.91788121 -18.76063238 40.30694756 -17.55957031 37.69580078 C-13.58152082 29.04804118 -9.59878749 20.40243916 -5.60546875 11.76171875 C-5.10172226 10.67009178 -5.10172226 10.67009178 -4.58779907 9.55641174 C-3.10329784 6.34737989 -1.60993381 3.14832628 0 0 Z " fill="#FFFFFF" transform="translate(198,62)"/>
<path d="M0 0 C2.64 0 5.28 0 8 0 C8.36918045 1.09208015 8.36918045 1.09208015 8.74581909 2.20622253 C11.0689697 9.07757299 13.39344696 15.94847255 15.71940422 22.81887341 C16.91506519 26.35076385 18.11021796 29.88282453 19.30419922 33.4152832 C20.45712784 36.8262232 21.61140459 40.23670427 22.76660538 43.64687538 C23.20642967 44.94601604 23.64577337 46.24531951 24.08462143 47.54479027 C24.7008005 49.3690803 25.31886912 51.19273178 25.93701172 53.01635742 C26.28786835 54.05338303 26.63872498 55.09040863 27.00021362 56.15885925 C27.65561875 58.02135533 28.36401124 59.86622041 29.12893677 61.68647766 C30 64 30 64 30 67 C27.69 67 25.38 67 23 67 C20.05525726 59.85992756 17.4345224 52.64745404 14.9609375 45.33203125 C14.59400787 44.25298019 14.22707825 43.17392914 13.84902954 42.06217957 C13.07970345 39.79783174 12.31168527 37.53303916 11.54492188 35.26782227 C10.37444607 31.81086399 9.19925992 28.35553353 8.0234375 24.90039062 C7.27315902 22.69019868 6.52314971 20.47991534 5.7734375 18.26953125 C5.42445404 17.24334183 5.07547058 16.2171524 4.71591187 15.15986633 C3.01740025 10.13512241 1.39858686 5.11668311 0 0 Z " fill="#FFFFFF" transform="translate(159,181)"/>
</svg>
