<?xml version="1.0" encoding="utf-8"?>
<!-- Generator: Adobe Illustrator 24.2.3, SVG Export Plug-In . SVG Version: 6.00 Build 0)  -->
<svg xmlns="http://www.w3.org/2000/svg" xmlns:xlink="http://www.w3.org/1999/xlink" version="1.1" id="Vrstva_1" x="0px" y="0px" viewBox="0 0 283.5 164.4" style="enable-background:new 0 0 283.5 164.4;" xml:space="preserve" width="121" height="70" preserveAspectRatio="xMinYMin">
<style type="text/css">
	.st0{fill:#F04600;}
	.st1{fill:currentColor;}
</style>
<g>
	<path class="st0" d="M39.2,70L26.4,98.5h-5.9L33.2,70H39.2z"/>
	<path class="st0" d="M99.3,16.2c7.8,0,14.1,6.3,14.1,14.1c0,7.8-6.3,14.1-14.1,14.1c-7.8,0-14.1-6.3-14.1-14.1c0,0,0,0,0,0   C85.3,22.5,91.6,16.2,99.3,16.2 M99.3,0C82.6,0,69,13.6,69.1,30.3c0,16.7,13.6,30.3,30.3,30.3c16.7,0,30.3-13.6,30.3-30.3   C129.6,13.6,116.1,0,99.3,0z"/>
	<polygon class="st0" points="29.8,45.5 11.3,1.1 0,1.1 0,59.5 9.3,59.5 9.3,19.4 26.1,59.5 33.7,59.5 50.3,19.4 50.3,59.5    59.7,59.5 59.7,1.1 48.4,1.1  "/>
	<path class="st0" d="M50.3,101.1L50.3,101.1c0,11.3-9.2,20.5-20.5,20.5s-20.5-9.2-20.5-20.5v-31H0v31   c-0.3,16.5,12.8,30.1,29.3,30.4c16.5,0.3,30.1-12.8,30.4-29.3c0-0.4,0-0.7,0-1.1l0,0v-31h-9.3V101.1z"/>
</g>
<g>
	<path class="st1" d="M77,69.9l8.6,20.5l8.6-20.5h5.1v26.9H95V78.3l-7.7,18.5h-3.5l-7.7-18.5v18.5h-4.3V69.9H77z"/>
	<path class="st1" d="M120.2,84.7v12.1h-4.1v-3c-1.3,2.1-3.6,3.3-6.1,3.3c-3.8,0-6.5-2.4-6.5-5.7c0-3.8,3-5.9,8.9-6.5l3.7-0.4v-0.3   c0-2.4-1.7-3.9-4.2-3.9c-2.2-0.2-4.1,1.5-4.3,3.7l-3.8-0.7c0.6-3.8,3.9-6.3,8-6.3C116.8,77.1,120.2,79.9,120.2,84.7z M116.1,88.5   v-0.8l-3.7,0.4c-3.2,0.4-4.8,1.5-4.8,3.2s1.3,2.6,3.2,2.6C114.1,93.9,116,91.6,116.1,88.5z"/>
	<path class="st1" d="M123.5,91.4L127,90c0.5,2.2,2.5,3.8,4.8,3.8c2,0,3.3-1.1,3.3-2.5c0-4.2-10.8-1.5-10.8-8.8c0-3,2.6-5.3,6.8-5.3   c3.7,0,6.7,1.9,7.6,4.8l-3.4,1.5c-0.5-1.8-2.2-3-4.1-3c-1.8,0-3,0.7-3,2c0,3.7,10.9,0.9,10.9,8.9c0,3.3-2.9,5.9-7.3,5.9   C128.1,97.3,124.7,95,123.5,91.4z"/>
	<path class="st1" d="M158.6,84.7v12.1h-4.1v-3c-1.3,2.1-3.6,3.3-6.1,3.3c-3.9,0-6.5-2.4-6.5-5.7c0-3.8,3-5.9,8.9-6.5l3.6-0.4v-0.3   c0-2.4-1.6-3.9-4.2-3.9c-2.2-0.2-4.1,1.5-4.3,3.7l-3.8-0.7c0.6-3.8,3.9-6.3,8-6.3C155.2,77.1,158.6,79.9,158.6,84.7z M154.5,88.5   v-0.8l-3.7,0.4c-3.1,0.4-4.8,1.5-4.8,3.2s1.3,2.6,3.2,2.6C152.5,93.9,154.4,91.6,154.5,88.5L154.5,88.5z"/>
	<path class="st1" d="M173,81.1c-2.9,0-5.3,2.5-5.3,8.5v7.2h-4.2V77.4h4.2v3.7c1.1-2.3,3.4-3.9,5.9-4c0.7,0,1.5,0.1,2.1,0.4l-0.2,4   C174.7,81.2,173.9,81,173,81.1z"/>
	<path class="st1" d="M186.2,103.8h-4.3l2.9-7.6l-7.5-18.8h4.5l5.1,13.4l5.2-13.4h4.3L186.2,103.8z"/>
	<path class="st1" d="M202.9,90.2v6.7h-4.2V69.6h4.2v15.2l8-7.3h5.4l-8,7.6l8.6,11.7h-5.1l-6.5-8.9L202.9,90.2z"/>
	<path class="st1" d="M232.5,96.8v-3.2c-1.3,2.2-3.8,3.6-6.4,3.5c-4.1,0-7-2.7-7-6.9V77.4h4.1v11.8c-0.2,2.1,1.4,4,3.5,4.1c0.2,0,0.3,0,0.5,0   c3.2,0,5.2-2.8,5.2-7.4v-8.5h4.2v19.4H232.5z"/>
	<path class="st1" d="M243.9,77.4l4.8,14.5l4.8-14.5h4.3l-7.1,19.4h-4l-7.1-19.4L243.9,77.4z"/>
	<path class="st1" d="M70.6,120.7c0-5.5,4.5-10,10-10s10,4.5,10,10s-4.5,10-10,10c-5.3,0.2-9.8-3.9-10-9.2C70.6,121.2,70.6,121,70.6,120.7z    M86.4,120.7c0-3.7-2.3-6.3-5.8-6.3s-5.8,2.6-5.8,6.3s2.3,6.4,5.8,6.4S86.3,124.5,86.4,120.7L86.4,120.7z"/>
	<path class="st1" d="M98.7,111v3.2c1.4-2.2,3.8-3.6,6.4-3.5c3.6-0.2,6.8,2.5,7,6.2c0,0.2,0,0.5,0,0.7v12.8h-4.2v-11.8c0.2-2.1-1.4-3.9-3.4-4.1   c-0.2,0-0.4,0-0.6,0c-3.3,0-5.2,2.8-5.2,7.4v8.5h-4.2V111H98.7z"/>
	<path class="st1" d="M121.2,123.8v6.6H117v-27.2h4.2v15.1l8-7.3h5.4l-8,7.7l8.7,11.7h-5.1l-6.5-8.9L121.2,123.8z"/>
	<path class="st1" d="M136,120.7c0-5.5,4.5-10,10-10s10,4.5,10,10s-4.5,10-10,10c-5.3,0.2-9.8-3.9-10-9.2C136,121.2,136,121,136,120.7z    M151.8,120.7c0-3.7-2.4-6.3-5.8-6.3s-5.8,2.6-5.8,6.3s2.3,6.4,5.8,6.4S151.8,124.5,151.8,120.7z"/>
	<path class="st1" d="M164.1,103.2v27.2h-4.2v-27.2H164.1z"/>
	<path class="st1" d="M168,120.7c0-5.5,4.5-10,10-10s10,4.5,10,10s-4.5,10-10,10c-5.3,0.2-9.8-3.9-10-9.2C168,121.2,168,121,168,120.7z    M183.8,120.7c0-3.7-2.4-6.3-5.8-6.3s-5.8,2.6-5.8,6.3s2.3,6.4,5.8,6.4S183.8,124.5,183.8,120.7z"/>
	<path class="st1" d="M209.9,129.3c0,5-3.8,8.4-9.4,8.4c-4.5,0-8.1-2.4-8.7-6l3.9-0.6c0.2,1.9,2.3,3.2,4.8,3.2c3.1,0,5.3-1.9,5.3-4.5v-2.3   c-1,1.5-3.2,2.5-5.8,2.5c-5.8,0-9.1-4-9.1-9.6s3.3-9.6,9-9.6c2.2-0.1,4.4,0.9,5.8,2.5V111h4.2L209.9,129.3z M206,120.3   c0-3.6-2.1-5.9-5.4-5.9s-5.5,2.4-5.5,5.9s2.2,5.9,5.5,5.9S206,123.9,206,120.3L206,120.3z"/>
	<path class="st1" d="M219,111v19.4h-4.2V111H219z"/>
	<path class="st1" d="M222.9,120.7c0-6,3.9-10,9.7-10c4.8,0,8.2,2.5,8.8,6.5l-4.1,0.8c-0.4-2.2-2.4-3.8-4.6-3.7c-3.3,0-5.5,2.5-5.5,6.3   s2.2,6.4,5.5,6.4c2.2,0.2,4.3-1.4,4.6-3.6l4.1,0.8c-0.8,4-4.1,6.5-8.9,6.5C226.8,130.7,222.9,126.7,222.9,120.7z"/>
	<path class="st1" d="M249.5,123.8v6.6h-4.2v-27.2h4.2v15.1l8-7.3h5.4l-8,7.7l8.6,11.7h-5.1l-6.5-8.9L249.5,123.8z"/>
	<path class="st1" d="M273.3,137.4H269l2.9-7.6l-7.6-18.8h4.5l5.1,13.4l5.2-13.4h4.3L273.3,137.4z M271.9,108.9l2.6-5.7h5l-4.6,5.7H271.9z"/>
	<path class="st1" d="M85,164v-3.2c-1.3,2.2-3.8,3.6-6.4,3.5c-4.1,0-7-2.7-7-6.9v-12.8h4.2v11.8c-0.2,2.1,1.4,4,3.5,4.1c0.2,0,0.3,0,0.5,0   c3.2,0,5.2-2.8,5.2-7.4v-8.5h4.2V164H85z M85.9,136.8l-4.5,5.7h-3l2.6-5.7H85.9z"/>
	<path class="st1" d="M92.6,158.6l3.5-1.5c0.5,2.3,2.5,3.8,4.9,3.8c2,0,3.3-1.1,3.3-2.5c0-4.2-10.8-1.5-10.8-8.8c0-3,2.6-5.3,6.8-5.3   c3.6,0,6.7,1.9,7.6,4.8l-3.5,1.5c-0.5-1.8-2.2-3-4.1-3c-1.9,0-3,0.7-3,2c0,3.7,10.9,0.9,10.9,8.8c0,3.4-2.9,5.9-7.3,5.9   C97.2,164.5,93.8,162.2,92.6,158.6z"/>
	<path class="st1" d="M119.6,164.3c-3.7,0-6.4-2-6.4-6.4v-9.7h-3.4v-3.6h3.4v-5.8h4.2v5.8h5v3.6h-5v9.4c0,1.9,1.1,2.9,2.6,2.9   c0.8,0,1.6-0.1,2.3-0.5l0.3,3.7C121.7,164.2,120.7,164.3,119.6,164.3z"/>
	<path class="st1" d="M141.6,151.9V164h-4.1v-3c-1.3,2.1-3.6,3.3-6.1,3.3c-3.8,0-6.5-2.4-6.5-5.7c0-3.8,3-5.9,8.9-6.5l3.6-0.4v-0.3   c0-2.4-1.6-3.8-4.2-3.8c-2.2-0.2-4.1,1.5-4.3,3.7l-3.8-0.7c0.6-3.8,3.9-6.3,8-6.3C138.2,144.3,141.6,147.1,141.6,151.9z    M137.5,155.7v-0.8l-3.7,0.4c-3.1,0.4-4.8,1.5-4.8,3.2c0,1.5,1.3,2.6,3.2,2.6C135.5,161.1,137.5,158.8,137.5,155.7L137.5,155.7z"/>
	<path class="st1" d="M148,144.6l4.8,14.5l4.8-14.5h4.3l-7.1,19.4h-4l-7.1-19.4H148z"/>
	<path class="st1" d="M227.9,70c1.1,0,1.9,0.8,1.9,1.9c0,1.1-0.8,1.9-1.9,1.9c-1.1,0-1.9-0.8-1.9-1.9c0,0,0,0,0,0C226,70.8,226.9,70,227.9,70    M227.9,67.8c-2.3,0-4.1,1.8-4.1,4.1c0,2.3,1.8,4.1,4.1,4.1c2.3,0,4.1-1.8,4.1-4.1C232.1,69.6,230.2,67.8,227.9,67.8   C228,67.8,228,67.8,227.9,67.8z"/>
	<circle class="st1" cx="216.9" cy="105.1" r="2.7"/>
</g>
</svg>
